<?xml version="1.0" encoding="UTF-8"?>
<svg id="galaxy2" xmlns="http://www.w3.org/2000/svg" version="1.1" viewBox="0 0 612 792">
  <defs>
    <style>
      .cls-1 {
        fill: #fff;
        stroke-width: 0px;
      }
    </style>
  </defs>
  <path class="cls-1" d="M553,424.4c-98.9,15.9-195.3-17.1-220-123.3-6.8-30.1-7.5-61.6-1.3-91.8-.4,7.6-.4,15.2,0,22.8,1.9,51.4,16.1,105.7,54.3,142,44.2,42.3,108.4,50.2,167.1,50.2h0Z"/>
  <path class="cls-1" d="M114.5,408.3c65.4,2.6,139.5-14.5,178.7-71.1,30.5-43.5,36.1-98.4,36.3-150.2,5.6,35.7,5.5,73.5-4.6,108.9-11.1,40.2-37.6,75.3-74.8,94.8-41.2,21.7-90.3,26.5-135.6,17.6h0Z"/>
  <path class="cls-1" d="M313.3,625.4c2.6-65.4-14.5-139.5-71.1-178.7-43.5-30.5-98.4-36.1-150.2-36.3,35.7-5.6,73.5-5.5,108.9,4.6,40.2,11.1,75.3,37.6,94.8,74.8,21.7,41.2,26.5,90.3,17.6,135.6h0Z"/>
  <path class="cls-1" d="M530.5,426.5c-65.4-2.6-139.5,14.5-178.7,71.1-30.5,43.5-36.1,98.4-36.3,150.2-5.6-35.7-5.5-73.5,4.6-108.9,11.1-40.2,37.6-75.3,74.8-94.8,41.2-21.7,90.3-26.5,135.6-17.6h0Z"/>
</svg>