<?xml version="1.0" encoding="UTF-8"?>
<svg id="galaxy" xmlns="http://www.w3.org/2000/svg" version="1.1" viewBox="0 0 612 792">
  <defs>
    <style>
      .cls-1 {
        fill: #fff;
        stroke-width: 0px;
      }
    </style>
  </defs>
  <path class="cls-1" d="M391,357.2c-.6,0-1.2-.1-1.8-.2h0c-4.3-.4-8.5-.6-12.7-.7h0c-8.2-.2-16.2.3-24,1.3-45.6,6.1-83.3,32.9-96.4,83.1-1.8,6.8-3,13.7-3.8,20.6,0,0,0,0,0,0-.8,7.5-1,15.1-.7,22.6.1,2.7.3,5.4.6,8h0c.2,2.1.5,4.2.9,6.3,0-9.6.9-19.1,2.4-28.4,11.2-71.9,55.8-104.4,122.2-111.4h0c3-.3,6.1-.6,9.2-.8,0,0,0,0,0,0,2.1-.1,4.2-.3,6.3-.4-.8,0-1.5-.2-2.3-.2ZM389.2,357h0c-4.2,0-8.5-.3-12.7-.7h0c-4.4-.4-8.8-.9-13.1-1.6-28.3-4.4-50.6-14-67.5-28.1-1.8-1.5-3.6-3.1-5.3-4.7-2.7-2.6-5.2-5.2-7.6-8.1-1.4-1.7-2.8-3.4-4.1-5.2-15.2-20.3-23.8-46.2-26.9-76.8,0,0,0,0,0,0-.5-4.9-.8-9.8-1.1-14.9-.6,5-.9,10-1.1,15h0c-.2,8.3.1,16.4,1.1,24.3,2.6,21.5,9.8,41.2,21.8,57.6,3.5,4.8,7.4,9.2,11.7,13.3,1.7,1.6,3.4,3.1,5.1,4.6,0,0,.2.1.2.2h0c12,10,26.8,17.6,44.4,22.2,6.1,1.6,12.2,2.8,18.4,3.5,8.3,1,16.6,1.3,24.9,1,.1,0,.2,0,.3,0h0c3.1-.2,6.2-.4,9.2-.8,0,0,0,0,0,0,1.3-.2,2.7-.4,4-.6.2,0,.5,0,.8-.1-.8,0-1.7,0-2.5,0ZM252.3,461.4s0,0,0,0c-2.3-21.7-9.7-42.9-22.6-60.5-3.2-4.3-6.6-8.3-10.3-12-4.3-4.3-9-8.1-13.9-11.5-16.2-11.1-35.3-17.5-55-19.9-8.7-1.1-17.6-1.4-26.4-1h0c-2.4,0-4.8.2-7.1.5,0,0-.1,0-.2,0-1.7.1-3.4.3-5.1.5h0c-.1,0-.3,0-.5,0,.5,0,1,0,1.4.1h0c4.5.3,8.9.7,13.4,1.1h0c14,1.5,27.8,4,41,8.3,12.6,3.9,23.6,9.4,33.1,16.2,2.4,1.7,4.6,3.5,6.8,5.3,1.3-1.5,2.5-2.9,3.8-4.3,4.9,3.5,9.6,7.5,13.9,11.9-1.6,1.8-3.2,3.6-4.8,5.4,21.5,25.6,31,60.6,31.4,96.9.3-2.1.6-4.2.8-6.3h0c1.1-10.1,1.2-20.5,0-30.7ZM251.9,231.9s0,0,0,0c-.1-4.9-.5-9.9-1.1-14.9-.2,5.1-.6,10.1-1.1,15h0c-6.8,66.7-39.3,111.6-111.4,122.8-4.7.8-9.4,1.3-14.1,1.7h0c-2.4.2-4.8.3-7.1.5,0,0-.1,0-.2,0-2.3.1-4.7.2-7,.2.6.1,1.3.2,1.9.3h0c.3,0,.7.1,1,.2h0c3.8.6,7.6.9,11.4,1.1.6,0,1.3,0,2,0h0c8.1.3,16.3-.1,24.4-1.2,5.7-.8,11.4-1.9,17-3.3,50.8-13.2,77.6-51.7,83.3-98,1-7.9,1.3-16,1.1-24.2ZM514.2,219c-33.7-45.3-138.9,24.3-173.2,48.8-19.5,14.2-38.5,29.1-56.9,44.9-.4.3-.8.7-1.2,1-1.6,1.4-3.3,2.8-4.9,4.2,3.4,4.9,7.2,9.4,11.5,13.6,0,0,.2.1.2.2h0c2-1.8,4.1-3.6,6.1-5.4,0,0,0,0,0,0,17.8-15.4,36.1-30.1,54.9-44.1,18-13.2,36.5-25.4,55.7-36.3,18.9-10.5,38.9-20.3,59.7-25.2,11.3-2.3,24.7-4.1,34.2,3.3,1.2,1,2.6,2.5,3.6,3.7,23.2,28.7.3,80-14.4,108.9-21,40.6-47.5,77.8-75.3,113.7-7,9-14.2,17.8-21.5,26.5,47.8-49.7,130.9-147.6,133.3-219.3.3-13.6-3.3-28-11.9-38.8ZM221.6,602.8c-15.1,6-30.8,11-46.8,13.1-6.5.8-12.8,1.2-19.2.5-3.2-.3-6.5-1.1-9.4-2.6-6.2-3.2-11-9.1-12.8-16-11.2-43.9,13.5-92.5,36-128.8,16.5-25.4,34.8-49.4,54.7-72.1.2-.3.5-.6.7-.8-1.9-2.3-3.9-4.5-6.1-6.7-2.2-2.2-4.4-4.3-6.8-6.3-.5.6-1,1.1-1.5,1.7-20.3,23.3-39,48.1-55.7,74.3-24.1,39.9-47.3,87.7-38,136.4,3.1,18.1,15.2,32.4,32.9,35.7,9,1.4,18.5.4,27.3-1.3,42.9-8.9,85.3-37.1,119.3-64.8-24.3,14.2-48.8,27.5-74.6,37.8Z"/>
</svg>