<?xml version="1.0" encoding="UTF-8"?>
<svg id="Layer_1" data-name="Layer 1" xmlns="http://www.w3.org/2000/svg" version="1.1" viewBox="0 0 300 100">
  <defs>
    <style>
      .cls-1 {
        fill: #fff;
        stroke-width: 0px;
      }
    </style>
  </defs>
  <path class="cls-1" d="M32.4,27.4v-5.9h5.9v5.9h-5.9ZM32.4,27.4v-5.9h5.9v5.9h-5.9ZM32.4,27.4v-5.9h5.9v5.9h-5.9ZM32.4,27.4v-5.9h5.9v5.9h-5.9ZM32.4,31.6v-5.9h5.9v5.9h-5.9ZM32.4,31.6v-5.9h5.9v5.9h-5.9ZM32.4,31.6v-5.9h5.9v5.9h-5.9ZM32.4,31.6v-5.9h5.9v5.9h-5.9ZM32.4,35.9v-5.9h5.9v5.9h-5.9ZM32.4,35.9v-5.9h5.9v5.9h-5.9ZM32.4,35.9v-5.9h5.9v5.9h-5.9ZM32.4,35.9v-5.9h5.9v5.9h-5.9ZM32.4,40.1v-5.9h5.9v5.9h-5.9ZM32.4,40.1v-5.9h5.9v5.9h-5.9ZM32.4,40.1v-5.9h5.9v5.9h-5.9ZM32.4,40.1v-5.9h5.9v5.9h-5.9ZM32.4,44.4v-5.9h5.9v5.9h-5.9ZM32.4,44.4v-5.9h5.9v5.9h-5.9ZM32.4,44.4v-5.9h5.9v5.9h-5.9ZM32.4,44.4v-5.9h5.9v5.9h-5.9ZM32.4,48.6v-5.9h5.9v5.9h-5.9ZM32.4,48.6v-5.9h5.9v5.9h-5.9ZM32.4,48.6v-5.9h5.9v5.9h-5.9ZM32.4,48.6v-5.9h5.9v5.9h-5.9ZM32.4,52.8v-5.9h5.9v5.9h-5.9ZM32.4,52.8v-5.9h5.9v5.9h-5.9ZM32.4,52.8v-5.9h5.9v5.9h-5.9ZM32.4,52.8v-5.9h5.9v5.9h-5.9ZM32.4,57.1v-5.9h5.9v5.9h-5.9ZM32.4,57.1v-5.9h5.9v5.9h-5.9ZM32.4,57.1v-5.9h5.9v5.9h-5.9ZM32.4,57.1v-5.9h5.9v5.9h-5.9ZM32.4,61.3v-5.9h5.9v5.9h-5.9ZM32.4,61.3v-5.9h5.9v5.9h-5.9ZM32.4,61.3v-5.9h5.9v5.9h-5.9ZM32.4,61.3v-5.9h5.9v5.9h-5.9ZM32.4,65.5v-5.9h5.9v5.9h-5.9ZM32.4,65.5v-5.9h5.9v5.9h-5.9ZM32.4,65.5v-5.9h5.9v5.9h-5.9ZM32.4,65.5v-5.9h5.9v5.9h-5.9ZM32.4,69.8v-5.9h5.9v5.9h-5.9ZM32.4,69.8v-5.9h5.9v5.9h-5.9ZM32.4,69.8v-5.9h5.9v5.9h-5.9ZM32.4,69.8v-5.9h5.9v5.9h-5.9ZM36.6,35.9v-5.9h5.9v5.9h-5.9ZM36.6,35.9v-5.9h5.9v5.9h-5.9ZM36.6,35.9v-5.9h5.9v5.9h-5.9ZM36.6,35.9v-5.9h5.9v5.9h-5.9ZM38.7,40.1v-5.9h5.9v5.9h-5.9ZM38.7,40.1v-5.9h5.9v5.9h-5.9ZM38.7,40.1v-5.9h5.9v5.9h-5.9ZM38.7,40.1v-5.9h5.9v5.9h-5.9ZM40.9,44.4v-5.9h5.9v5.9h-5.9ZM40.9,44.4v-5.9h5.9v5.9h-5.9ZM40.9,44.4v-5.9h5.9v5.9h-5.9ZM40.9,44.4v-5.9h5.9v5.9h-5.9ZM43,48.6v-5.9h5.9v5.9h-5.9ZM43,48.6v-5.9h5.9v5.9h-5.9ZM43,48.6v-5.9h5.9v5.9h-5.9ZM43,48.6v-5.9h5.9v5.9h-5.9ZM45.1,52.8v-5.9h5.9v5.9h-5.9ZM45.1,52.8v-5.9h5.9v5.9h-5.9ZM45.1,52.8v-5.9h5.9v5.9h-5.9ZM45.1,52.8v-5.9h5.9v5.9h-5.9ZM47.2,48.6v-5.9h5.9v5.9h-5.9ZM47.2,48.6v-5.9h5.9v5.9h-5.9ZM47.2,48.6v-5.9h5.9v5.9h-5.9ZM47.2,48.6v-5.9h5.9v5.9h-5.9ZM49.3,44.4v-5.9h5.9v5.9h-5.9ZM49.3,44.4v-5.9h5.9v5.9h-5.9ZM49.3,44.4v-5.9h5.9v5.9h-5.9ZM49.3,44.4v-5.9h5.9v5.9h-5.9ZM51.4,40.1v-5.9h5.9v5.9h-5.9ZM51.4,40.1v-5.9h5.9v5.9h-5.9ZM51.4,40.1v-5.9h5.9v5.9h-5.9ZM51.4,40.1v-5.9h5.9v5.9h-5.9ZM53.6,35.9v-5.9h5.9v5.9h-5.9ZM53.6,35.9v-5.9h5.9v5.9h-5.9ZM53.6,35.9v-5.9h5.9v5.9h-5.9ZM53.6,35.9v-5.9h5.9v5.9h-5.9ZM57.8,27.4v-5.9h5.9v5.9h-5.9ZM57.8,27.4v-5.9h5.9v5.9h-5.9ZM57.8,27.4v-5.9h5.9v5.9h-5.9ZM57.8,27.4v-5.9h5.9v5.9h-5.9ZM57.8,31.6v-5.9h5.9v5.9h-5.9ZM57.8,31.6v-5.9h5.9v5.9h-5.9ZM57.8,31.6v-5.9h5.9v5.9h-5.9ZM57.8,31.6v-5.9h5.9v5.9h-5.9ZM57.8,35.9v-5.9h5.9v5.9h-5.9ZM57.8,35.9v-5.9h5.9v5.9h-5.9ZM57.8,35.9v-5.9h5.9v5.9h-5.9ZM57.8,35.9v-5.9h5.9v5.9h-5.9ZM57.8,40.1v-5.9h5.9v5.9h-5.9ZM57.8,40.1v-5.9h5.9v5.9h-5.9ZM57.8,40.1v-5.9h5.9v5.9h-5.9ZM57.8,40.1v-5.9h5.9v5.9h-5.9ZM57.8,44.4v-5.9h5.9v5.9h-5.9ZM57.8,44.4v-5.9h5.9v5.9h-5.9ZM57.8,44.4v-5.9h5.9v5.9h-5.9ZM57.8,44.4v-5.9h5.9v5.9h-5.9ZM57.8,48.6v-5.9h5.9v5.9h-5.9ZM57.8,48.6v-5.9h5.9v5.9h-5.9ZM57.8,48.6v-5.9h5.9v5.9h-5.9ZM57.8,48.6v-5.9h5.9v5.9h-5.9ZM57.8,52.8v-5.9h5.9v5.9h-5.9ZM57.8,52.8v-5.9h5.9v5.9h-5.9ZM57.8,52.8v-5.9h5.9v5.9h-5.9ZM57.8,52.8v-5.9h5.9v5.9h-5.9ZM57.8,57.1v-5.9h5.9v5.9h-5.9ZM57.8,57.1v-5.9h5.9v5.9h-5.9ZM57.8,57.1v-5.9h5.9v5.9h-5.9ZM57.8,57.1v-5.9h5.9v5.9h-5.9ZM57.8,61.3v-5.9h5.9v5.9h-5.9ZM57.8,61.3v-5.9h5.9v5.9h-5.9ZM57.8,61.3v-5.9h5.9v5.9h-5.9ZM57.8,61.3v-5.9h5.9v5.9h-5.9ZM57.8,65.5v-5.9h5.9v5.9h-5.9ZM57.8,65.5v-5.9h5.9v5.9h-5.9ZM57.8,65.5v-5.9h5.9v5.9h-5.9ZM57.8,65.5v-5.9h5.9v5.9h-5.9ZM57.8,69.8v-5.9h5.9v5.9h-5.9ZM57.8,69.8v-5.9h5.9v5.9h-5.9ZM57.8,69.8v-5.9h5.9v5.9h-5.9ZM57.8,69.8v-5.9h5.9v5.9h-5.9Z"/>
  <path class="cls-1" d="M64.2,82.5v-5.9h5.9v5.9h-5.9ZM64.2,82.5v-5.9h5.9v5.9h-5.9ZM64.2,82.5v-5.9h5.9v5.9h-5.9ZM64.2,82.5v-5.9h5.9v5.9h-5.9ZM68.4,40.1v-5.9h5.9v5.9h-5.9ZM68.4,40.1v-5.9h5.9v5.9h-5.9ZM68.4,40.1v-5.9h5.9v5.9h-5.9ZM68.4,40.1v-5.9h5.9v5.9h-5.9ZM68.4,44.4v-5.9h5.9v5.9h-5.9ZM68.4,44.4v-5.9h5.9v5.9h-5.9ZM68.4,44.4v-5.9h5.9v5.9h-5.9ZM68.4,44.4v-5.9h5.9v5.9h-5.9ZM68.4,48.6v-5.9h5.9v5.9h-5.9ZM68.4,48.6v-5.9h5.9v5.9h-5.9ZM68.4,48.6v-5.9h5.9v5.9h-5.9ZM68.4,48.6v-5.9h5.9v5.9h-5.9ZM68.4,52.8v-5.9h5.9v5.9h-5.9ZM68.4,52.8v-5.9h5.9v5.9h-5.9ZM68.4,52.8v-5.9h5.9v5.9h-5.9ZM68.4,52.8v-5.9h5.9v5.9h-5.9ZM68.4,57.1v-5.9h5.9v5.9h-5.9ZM68.4,57.1v-5.9h5.9v5.9h-5.9ZM68.4,57.1v-5.9h5.9v5.9h-5.9ZM68.4,57.1v-5.9h5.9v5.9h-5.9ZM68.4,82.5v-5.9h5.9v5.9h-5.9ZM68.4,82.5v-5.9h5.9v5.9h-5.9ZM68.4,82.5v-5.9h5.9v5.9h-5.9ZM68.4,82.5v-5.9h5.9v5.9h-5.9ZM70.5,61.3v-5.9h5.9v5.9h-5.9ZM70.5,61.3v-5.9h5.9v5.9h-5.9ZM70.5,61.3v-5.9h5.9v5.9h-5.9ZM70.5,61.3v-5.9h5.9v5.9h-5.9ZM72.6,65.5v-5.9h5.9v5.9h-5.9ZM72.6,65.5v-5.9h5.9v5.9h-5.9ZM72.6,65.5v-5.9h5.9v5.9h-5.9ZM72.6,65.5v-5.9h5.9v5.9h-5.9ZM72.6,82.5v-5.9h5.9v5.9h-5.9ZM72.6,82.5v-5.9h5.9v5.9h-5.9ZM72.6,82.5v-5.9h5.9v5.9h-5.9ZM72.6,82.5v-5.9h5.9v5.9h-5.9ZM74.7,69.8v-5.9h5.9v5.9h-5.9ZM74.7,69.8v-5.9h5.9v5.9h-5.9ZM74.7,69.8v-5.9h5.9v5.9h-5.9ZM74.7,69.8v-5.9h5.9v5.9h-5.9ZM74.7,78.2v-5.9h5.9v5.9h-5.9ZM74.7,78.2v-5.9h5.9v5.9h-5.9ZM74.7,78.2v-5.9h5.9v5.9h-5.9ZM74.7,78.2v-5.9h5.9v5.9h-5.9ZM76.9,74v-5.9h5.9v5.9h-5.9ZM76.9,74v-5.9h5.9v5.9h-5.9ZM76.9,74v-5.9h5.9v5.9h-5.9ZM76.9,74v-5.9h5.9v5.9h-5.9ZM79,69.8v-5.9h5.9v5.9h-5.9ZM79,69.8v-5.9h5.9v5.9h-5.9ZM79,69.8v-5.9h5.9v5.9h-5.9ZM79,69.8v-5.9h5.9v5.9h-5.9ZM81.1,65.5v-5.9h5.9v5.9h-5.9ZM81.1,65.5v-5.9h5.9v5.9h-5.9ZM81.1,65.5v-5.9h5.9v5.9h-5.9ZM81.1,65.5v-5.9h5.9v5.9h-5.9ZM83.2,61.3v-5.9h5.9v5.9h-5.9ZM83.2,61.3v-5.9h5.9v5.9h-5.9ZM83.2,61.3v-5.9h5.9v5.9h-5.9ZM83.2,61.3v-5.9h5.9v5.9h-5.9ZM85.3,40.1v-5.9h5.9v5.9h-5.9ZM85.3,40.1v-5.9h5.9v5.9h-5.9ZM85.3,40.1v-5.9h5.9v5.9h-5.9ZM85.3,40.1v-5.9h5.9v5.9h-5.9ZM85.3,44.4v-5.9h5.9v5.9h-5.9ZM85.3,44.4v-5.9h5.9v5.9h-5.9ZM85.3,44.4v-5.9h5.9v5.9h-5.9ZM85.3,44.4v-5.9h5.9v5.9h-5.9ZM85.3,48.6v-5.9h5.9v5.9h-5.9ZM85.3,48.6v-5.9h5.9v5.9h-5.9ZM85.3,48.6v-5.9h5.9v5.9h-5.9ZM85.3,48.6v-5.9h5.9v5.9h-5.9ZM85.3,52.8v-5.9h5.9v5.9h-5.9ZM85.3,52.8v-5.9h5.9v5.9h-5.9ZM85.3,52.8v-5.9h5.9v5.9h-5.9ZM85.3,52.8v-5.9h5.9v5.9h-5.9ZM85.3,57.1v-5.9h5.9v5.9h-5.9ZM85.3,57.1v-5.9h5.9v5.9h-5.9ZM85.3,57.1v-5.9h5.9v5.9h-5.9ZM85.3,57.1v-5.9h5.9v5.9h-5.9Z"/>
  <path class="cls-1" d="M93.8,27.4v-5.9h5.9v5.9h-5.9ZM93.8,27.4v-5.9h5.9v5.9h-5.9ZM93.8,27.4v-5.9h5.9v5.9h-5.9ZM93.8,27.4v-5.9h5.9v5.9h-5.9ZM93.8,31.6v-5.9h5.9v5.9h-5.9ZM93.8,31.6v-5.9h5.9v5.9h-5.9ZM93.8,31.6v-5.9h5.9v5.9h-5.9ZM93.8,31.6v-5.9h5.9v5.9h-5.9ZM93.8,35.9v-5.9h5.9v5.9h-5.9ZM93.8,35.9v-5.9h5.9v5.9h-5.9ZM93.8,35.9v-5.9h5.9v5.9h-5.9ZM93.8,35.9v-5.9h5.9v5.9h-5.9ZM95.9,40.1v-5.9h5.9v5.9h-5.9ZM95.9,40.1v-5.9h5.9v5.9h-5.9ZM95.9,40.1v-5.9h5.9v5.9h-5.9ZM95.9,40.1v-5.9h5.9v5.9h-5.9ZM98,44.4v-5.9h5.9v5.9h-5.9ZM98,44.4v-5.9h5.9v5.9h-5.9ZM98,44.4v-5.9h5.9v5.9h-5.9ZM98,44.4v-5.9h5.9v5.9h-5.9ZM100.2,48.6v-5.9h5.9v5.9h-5.9ZM100.2,48.6v-5.9h5.9v5.9h-5.9ZM100.2,48.6v-5.9h5.9v5.9h-5.9ZM100.2,48.6v-5.9h5.9v5.9h-5.9ZM102.3,52.8v-5.9h5.9v5.9h-5.9ZM102.3,52.8v-5.9h5.9v5.9h-5.9ZM102.3,52.8v-5.9h5.9v5.9h-5.9ZM102.3,52.8v-5.9h5.9v5.9h-5.9ZM104.4,57.1v-5.9h5.9v5.9h-5.9ZM104.4,57.1v-5.9h5.9v5.9h-5.9ZM104.4,57.1v-5.9h5.9v5.9h-5.9ZM104.4,57.1v-5.9h5.9v5.9h-5.9ZM104.4,61.3v-5.9h5.9v5.9h-5.9ZM104.4,61.3v-5.9h5.9v5.9h-5.9ZM104.4,61.3v-5.9h5.9v5.9h-5.9ZM104.4,61.3v-5.9h5.9v5.9h-5.9ZM104.4,65.5v-5.9h5.9v5.9h-5.9ZM104.4,65.5v-5.9h5.9v5.9h-5.9ZM104.4,65.5v-5.9h5.9v5.9h-5.9ZM104.4,65.5v-5.9h5.9v5.9h-5.9ZM104.4,69.8v-5.9h5.9v5.9h-5.9ZM104.4,69.8v-5.9h5.9v5.9h-5.9ZM104.4,69.8v-5.9h5.9v5.9h-5.9ZM104.4,69.8v-5.9h5.9v5.9h-5.9ZM106.5,52.8v-5.9h5.9v5.9h-5.9ZM106.5,52.8v-5.9h5.9v5.9h-5.9ZM106.5,52.8v-5.9h5.9v5.9h-5.9ZM106.5,52.8v-5.9h5.9v5.9h-5.9ZM108.6,48.6v-5.9h5.9v5.9h-5.9ZM108.6,48.6v-5.9h5.9v5.9h-5.9ZM108.6,48.6v-5.9h5.9v5.9h-5.9ZM108.6,48.6v-5.9h5.9v5.9h-5.9ZM110.7,44.4v-5.9h5.9v5.9h-5.9ZM110.7,44.4v-5.9h5.9v5.9h-5.9ZM110.7,44.4v-5.9h5.9v5.9h-5.9ZM110.7,44.4v-5.9h5.9v5.9h-5.9ZM112.9,40.1v-5.9h5.9v5.9h-5.9ZM112.9,40.1v-5.9h5.9v5.9h-5.9ZM112.9,40.1v-5.9h5.9v5.9h-5.9ZM112.9,40.1v-5.9h5.9v5.9h-5.9ZM115,27.4v-5.9h5.9v5.9h-5.9ZM115,27.4v-5.9h5.9v5.9h-5.9ZM115,27.4v-5.9h5.9v5.9h-5.9ZM115,27.4v-5.9h5.9v5.9h-5.9ZM115,31.6v-5.9h5.9v5.9h-5.9ZM115,31.6v-5.9h5.9v5.9h-5.9ZM115,31.6v-5.9h5.9v5.9h-5.9ZM115,31.6v-5.9h5.9v5.9h-5.9ZM115,35.9v-5.9h5.9v5.9h-5.9ZM115,35.9v-5.9h5.9v5.9h-5.9ZM115,35.9v-5.9h5.9v5.9h-5.9ZM115,35.9v-5.9h5.9v5.9h-5.9Z"/>
  <path class="cls-1" d="M125.6,31.6v-5.9h5.9v5.9h-5.9ZM125.6,31.6v-5.9h5.9v5.9h-5.9ZM125.6,31.6v-5.9h5.9v5.9h-5.9ZM125.6,31.6v-5.9h5.9v5.9h-5.9ZM125.6,35.9v-5.9h5.9v5.9h-5.9ZM125.6,35.9v-5.9h5.9v5.9h-5.9ZM125.6,35.9v-5.9h5.9v5.9h-5.9ZM125.6,35.9v-5.9h5.9v5.9h-5.9ZM125.6,40.1v-5.9h5.9v5.9h-5.9ZM125.6,40.1v-5.9h5.9v5.9h-5.9ZM125.6,40.1v-5.9h5.9v5.9h-5.9ZM125.6,40.1v-5.9h5.9v5.9h-5.9ZM125.6,69.8v-5.9h5.9v5.9h-5.9ZM125.6,69.8v-5.9h5.9v5.9h-5.9ZM125.6,69.8v-5.9h5.9v5.9h-5.9ZM125.6,69.8v-5.9h5.9v5.9h-5.9ZM129.8,27.4v-5.9h5.9v5.9h-5.9ZM129.8,27.4v-5.9h5.9v5.9h-5.9ZM129.8,27.4v-5.9h5.9v5.9h-5.9ZM129.8,27.4v-5.9h5.9v5.9h-5.9ZM129.8,65.5v-5.9h5.9v5.9h-5.9ZM129.8,65.5v-5.9h5.9v5.9h-5.9ZM129.8,65.5v-5.9h5.9v5.9h-5.9ZM129.8,65.5v-5.9h5.9v5.9h-5.9ZM129.8,69.8v-5.9h5.9v5.9h-5.9ZM129.8,69.8v-5.9h5.9v5.9h-5.9ZM129.8,69.8v-5.9h5.9v5.9h-5.9ZM129.8,69.8v-5.9h5.9v5.9h-5.9ZM131.9,61.3v-5.9h5.9v5.9h-5.9ZM131.9,61.3v-5.9h5.9v5.9h-5.9ZM131.9,61.3v-5.9h5.9v5.9h-5.9ZM131.9,61.3v-5.9h5.9v5.9h-5.9ZM134,27.4v-5.9h5.9v5.9h-5.9ZM134,27.4v-5.9h5.9v5.9h-5.9ZM134,27.4v-5.9h5.9v5.9h-5.9ZM134,27.4v-5.9h5.9v5.9h-5.9ZM134,57.1v-5.9h5.9v5.9h-5.9ZM134,57.1v-5.9h5.9v5.9h-5.9ZM134,57.1v-5.9h5.9v5.9h-5.9ZM134,57.1v-5.9h5.9v5.9h-5.9ZM134,69.8v-5.9h5.9v5.9h-5.9ZM134,69.8v-5.9h5.9v5.9h-5.9ZM134,69.8v-5.9h5.9v5.9h-5.9ZM134,69.8v-5.9h5.9v5.9h-5.9ZM136.2,52.8v-5.9h5.9v5.9h-5.9ZM136.2,52.8v-5.9h5.9v5.9h-5.9ZM136.2,52.8v-5.9h5.9v5.9h-5.9ZM136.2,52.8v-5.9h5.9v5.9h-5.9ZM138.3,27.4v-5.9h5.9v5.9h-5.9ZM138.3,27.4v-5.9h5.9v5.9h-5.9ZM138.3,27.4v-5.9h5.9v5.9h-5.9ZM138.3,27.4v-5.9h5.9v5.9h-5.9ZM138.3,48.6v-5.9h5.9v5.9h-5.9ZM138.3,48.6v-5.9h5.9v5.9h-5.9ZM138.3,48.6v-5.9h5.9v5.9h-5.9ZM138.3,48.6v-5.9h5.9v5.9h-5.9ZM138.3,69.8v-5.9h5.9v5.9h-5.9ZM138.3,69.8v-5.9h5.9v5.9h-5.9ZM138.3,69.8v-5.9h5.9v5.9h-5.9ZM138.3,69.8v-5.9h5.9v5.9h-5.9ZM140.4,44.4v-5.9h5.9v5.9h-5.9ZM140.4,44.4v-5.9h5.9v5.9h-5.9ZM140.4,44.4v-5.9h5.9v5.9h-5.9ZM140.4,44.4v-5.9h5.9v5.9h-5.9ZM142.5,31.6v-5.9h5.9v5.9h-5.9ZM142.5,31.6v-5.9h5.9v5.9h-5.9ZM142.5,31.6v-5.9h5.9v5.9h-5.9ZM142.5,31.6v-5.9h5.9v5.9h-5.9ZM142.5,35.9v-5.9h5.9v5.9h-5.9ZM142.5,35.9v-5.9h5.9v5.9h-5.9ZM142.5,35.9v-5.9h5.9v5.9h-5.9ZM142.5,35.9v-5.9h5.9v5.9h-5.9ZM142.5,40.1v-5.9h5.9v5.9h-5.9ZM142.5,40.1v-5.9h5.9v5.9h-5.9ZM142.5,40.1v-5.9h5.9v5.9h-5.9ZM142.5,40.1v-5.9h5.9v5.9h-5.9ZM142.5,69.8v-5.9h5.9v5.9h-5.9ZM142.5,69.8v-5.9h5.9v5.9h-5.9ZM142.5,69.8v-5.9h5.9v5.9h-5.9ZM142.5,69.8v-5.9h5.9v5.9h-5.9Z"/>
  <path class="cls-1" d="M155.2,27.4v-5.9h5.9v5.9h-5.9ZM155.2,27.4v-5.9h5.9v5.9h-5.9ZM155.2,27.4v-5.9h5.9v5.9h-5.9ZM155.2,27.4v-5.9h5.9v5.9h-5.9ZM155.2,31.6v-5.9h5.9v5.9h-5.9ZM155.2,31.6v-5.9h5.9v5.9h-5.9ZM155.2,31.6v-5.9h5.9v5.9h-5.9ZM155.2,31.6v-5.9h5.9v5.9h-5.9ZM155.2,35.9v-5.9h5.9v5.9h-5.9ZM155.2,35.9v-5.9h5.9v5.9h-5.9ZM155.2,35.9v-5.9h5.9v5.9h-5.9ZM155.2,35.9v-5.9h5.9v5.9h-5.9ZM155.2,40.1v-5.9h5.9v5.9h-5.9ZM155.2,40.1v-5.9h5.9v5.9h-5.9ZM155.2,40.1v-5.9h5.9v5.9h-5.9ZM155.2,40.1v-5.9h5.9v5.9h-5.9ZM155.2,44.4v-5.9h5.9v5.9h-5.9ZM155.2,44.4v-5.9h5.9v5.9h-5.9ZM155.2,44.4v-5.9h5.9v5.9h-5.9ZM155.2,44.4v-5.9h5.9v5.9h-5.9ZM155.2,48.6v-5.9h5.9v5.9h-5.9ZM155.2,48.6v-5.9h5.9v5.9h-5.9ZM155.2,48.6v-5.9h5.9v5.9h-5.9ZM155.2,48.6v-5.9h5.9v5.9h-5.9ZM155.2,52.8v-5.9h5.9v5.9h-5.9ZM155.2,52.8v-5.9h5.9v5.9h-5.9ZM155.2,52.8v-5.9h5.9v5.9h-5.9ZM155.2,52.8v-5.9h5.9v5.9h-5.9ZM155.2,57.1v-5.9h5.9v5.9h-5.9ZM155.2,57.1v-5.9h5.9v5.9h-5.9ZM155.2,57.1v-5.9h5.9v5.9h-5.9ZM155.2,57.1v-5.9h5.9v5.9h-5.9ZM155.2,61.3v-5.9h5.9v5.9h-5.9ZM155.2,61.3v-5.9h5.9v5.9h-5.9ZM155.2,61.3v-5.9h5.9v5.9h-5.9ZM155.2,61.3v-5.9h5.9v5.9h-5.9ZM155.2,65.5v-5.9h5.9v5.9h-5.9ZM155.2,65.5v-5.9h5.9v5.9h-5.9ZM155.2,65.5v-5.9h5.9v5.9h-5.9ZM155.2,65.5v-5.9h5.9v5.9h-5.9ZM155.2,69.8v-5.9h5.9v5.9h-5.9ZM155.2,69.8v-5.9h5.9v5.9h-5.9ZM155.2,69.8v-5.9h5.9v5.9h-5.9ZM155.2,69.8v-5.9h5.9v5.9h-5.9ZM159.4,48.6v-5.9h5.9v5.9h-5.9ZM159.4,48.6v-5.9h5.9v5.9h-5.9ZM159.4,48.6v-5.9h5.9v5.9h-5.9ZM159.4,48.6v-5.9h5.9v5.9h-5.9ZM163.7,48.6v-5.9h5.9v5.9h-5.9ZM163.7,48.6v-5.9h5.9v5.9h-5.9ZM163.7,48.6v-5.9h5.9v5.9h-5.9ZM163.7,48.6v-5.9h5.9v5.9h-5.9ZM165.8,44.4v-5.9h5.9v5.9h-5.9ZM165.8,44.4v-5.9h5.9v5.9h-5.9ZM165.8,44.4v-5.9h5.9v5.9h-5.9ZM165.8,44.4v-5.9h5.9v5.9h-5.9ZM165.8,52.8v-5.9h5.9v5.9h-5.9ZM165.8,52.8v-5.9h5.9v5.9h-5.9ZM165.8,52.8v-5.9h5.9v5.9h-5.9ZM165.8,52.8v-5.9h5.9v5.9h-5.9ZM167.9,40.1v-5.9h5.9v5.9h-5.9ZM167.9,40.1v-5.9h5.9v5.9h-5.9ZM167.9,40.1v-5.9h5.9v5.9h-5.9ZM167.9,40.1v-5.9h5.9v5.9h-5.9ZM167.9,57.1v-5.9h5.9v5.9h-5.9ZM167.9,57.1v-5.9h5.9v5.9h-5.9ZM167.9,57.1v-5.9h5.9v5.9h-5.9ZM167.9,57.1v-5.9h5.9v5.9h-5.9ZM170,35.9v-5.9h5.9v5.9h-5.9ZM170,35.9v-5.9h5.9v5.9h-5.9ZM170,35.9v-5.9h5.9v5.9h-5.9ZM170,35.9v-5.9h5.9v5.9h-5.9ZM170,61.3v-5.9h5.9v5.9h-5.9ZM170,61.3v-5.9h5.9v5.9h-5.9ZM170,61.3v-5.9h5.9v5.9h-5.9ZM170,61.3v-5.9h5.9v5.9h-5.9ZM172.2,31.6v-5.9h5.9v5.9h-5.9ZM172.2,31.6v-5.9h5.9v5.9h-5.9ZM172.2,31.6v-5.9h5.9v5.9h-5.9ZM172.2,31.6v-5.9h5.9v5.9h-5.9ZM172.2,65.5v-5.9h5.9v5.9h-5.9ZM172.2,65.5v-5.9h5.9v5.9h-5.9ZM172.2,65.5v-5.9h5.9v5.9h-5.9ZM172.2,65.5v-5.9h5.9v5.9h-5.9ZM174.3,27.4v-5.9h5.9v5.9h-5.9ZM174.3,27.4v-5.9h5.9v5.9h-5.9ZM174.3,27.4v-5.9h5.9v5.9h-5.9ZM174.3,27.4v-5.9h5.9v5.9h-5.9ZM174.3,69.8v-5.9h5.9v5.9h-5.9ZM174.3,69.8v-5.9h5.9v5.9h-5.9ZM174.3,69.8v-5.9h5.9v5.9h-5.9ZM174.3,69.8v-5.9h5.9v5.9h-5.9Z"/>
  <path class="cls-1" d="M184.9,27.4v-5.9h5.9v5.9h-5.9ZM184.9,27.4v-5.9h5.9v5.9h-5.9ZM184.9,27.4v-5.9h5.9v5.9h-5.9ZM184.9,27.4v-5.9h5.9v5.9h-5.9ZM184.9,31.6v-5.9h5.9v5.9h-5.9ZM184.9,31.6v-5.9h5.9v5.9h-5.9ZM184.9,31.6v-5.9h5.9v5.9h-5.9ZM184.9,31.6v-5.9h5.9v5.9h-5.9ZM184.9,35.9v-5.9h5.9v5.9h-5.9ZM184.9,35.9v-5.9h5.9v5.9h-5.9ZM184.9,35.9v-5.9h5.9v5.9h-5.9ZM184.9,35.9v-5.9h5.9v5.9h-5.9ZM184.9,40.1v-5.9h5.9v5.9h-5.9ZM184.9,40.1v-5.9h5.9v5.9h-5.9ZM184.9,40.1v-5.9h5.9v5.9h-5.9ZM184.9,40.1v-5.9h5.9v5.9h-5.9ZM184.9,44.4v-5.9h5.9v5.9h-5.9ZM184.9,44.4v-5.9h5.9v5.9h-5.9ZM184.9,44.4v-5.9h5.9v5.9h-5.9ZM184.9,44.4v-5.9h5.9v5.9h-5.9ZM184.9,48.6v-5.9h5.9v5.9h-5.9ZM184.9,48.6v-5.9h5.9v5.9h-5.9ZM184.9,48.6v-5.9h5.9v5.9h-5.9ZM184.9,48.6v-5.9h5.9v5.9h-5.9ZM184.9,52.8v-5.9h5.9v5.9h-5.9ZM184.9,52.8v-5.9h5.9v5.9h-5.9ZM184.9,52.8v-5.9h5.9v5.9h-5.9ZM184.9,52.8v-5.9h5.9v5.9h-5.9ZM184.9,57.1v-5.9h5.9v5.9h-5.9ZM184.9,57.1v-5.9h5.9v5.9h-5.9ZM184.9,57.1v-5.9h5.9v5.9h-5.9ZM184.9,57.1v-5.9h5.9v5.9h-5.9ZM184.9,61.3v-5.9h5.9v5.9h-5.9ZM184.9,61.3v-5.9h5.9v5.9h-5.9ZM184.9,61.3v-5.9h5.9v5.9h-5.9ZM184.9,61.3v-5.9h5.9v5.9h-5.9ZM184.9,65.5v-5.9h5.9v5.9h-5.9ZM184.9,65.5v-5.9h5.9v5.9h-5.9ZM184.9,65.5v-5.9h5.9v5.9h-5.9ZM184.9,65.5v-5.9h5.9v5.9h-5.9ZM184.9,69.8v-5.9h5.9v5.9h-5.9ZM184.9,69.8v-5.9h5.9v5.9h-5.9ZM184.9,69.8v-5.9h5.9v5.9h-5.9ZM184.9,69.8v-5.9h5.9v5.9h-5.9ZM189.1,69.8v-5.9h5.9v5.9h-5.9ZM189.1,69.8v-5.9h5.9v5.9h-5.9ZM189.1,69.8v-5.9h5.9v5.9h-5.9ZM189.1,69.8v-5.9h5.9v5.9h-5.9ZM193.3,69.8v-5.9h5.9v5.9h-5.9ZM193.3,69.8v-5.9h5.9v5.9h-5.9ZM193.3,69.8v-5.9h5.9v5.9h-5.9ZM193.3,69.8v-5.9h5.9v5.9h-5.9ZM197.6,69.8v-5.9h5.9v5.9h-5.9ZM197.6,69.8v-5.9h5.9v5.9h-5.9ZM197.6,69.8v-5.9h5.9v5.9h-5.9ZM197.6,69.8v-5.9h5.9v5.9h-5.9Z"/>
  <path class="cls-1" d="M208.1,27.4v-5.9h5.9v5.9h-5.9ZM208.1,27.4v-5.9h5.9v5.9h-5.9ZM208.1,27.4v-5.9h5.9v5.9h-5.9ZM208.1,27.4v-5.9h5.9v5.9h-5.9ZM208.1,31.6v-5.9h5.9v5.9h-5.9ZM208.1,31.6v-5.9h5.9v5.9h-5.9ZM208.1,31.6v-5.9h5.9v5.9h-5.9ZM208.1,31.6v-5.9h5.9v5.9h-5.9ZM208.1,40.1v-5.9h5.9v5.9h-5.9ZM208.1,40.1v-5.9h5.9v5.9h-5.9ZM208.1,40.1v-5.9h5.9v5.9h-5.9ZM208.1,40.1v-5.9h5.9v5.9h-5.9ZM208.1,44.4v-5.9h5.9v5.9h-5.9ZM208.1,44.4v-5.9h5.9v5.9h-5.9ZM208.1,44.4v-5.9h5.9v5.9h-5.9ZM208.1,44.4v-5.9h5.9v5.9h-5.9ZM208.1,48.6v-5.9h5.9v5.9h-5.9ZM208.1,48.6v-5.9h5.9v5.9h-5.9ZM208.1,48.6v-5.9h5.9v5.9h-5.9ZM208.1,48.6v-5.9h5.9v5.9h-5.9ZM208.1,52.8v-5.9h5.9v5.9h-5.9ZM208.1,52.8v-5.9h5.9v5.9h-5.9ZM208.1,52.8v-5.9h5.9v5.9h-5.9ZM208.1,52.8v-5.9h5.9v5.9h-5.9ZM208.1,57.1v-5.9h5.9v5.9h-5.9ZM208.1,57.1v-5.9h5.9v5.9h-5.9ZM208.1,57.1v-5.9h5.9v5.9h-5.9ZM208.1,57.1v-5.9h5.9v5.9h-5.9ZM208.1,61.3v-5.9h5.9v5.9h-5.9ZM208.1,61.3v-5.9h5.9v5.9h-5.9ZM208.1,61.3v-5.9h5.9v5.9h-5.9ZM208.1,61.3v-5.9h5.9v5.9h-5.9ZM208.1,65.5v-5.9h5.9v5.9h-5.9ZM208.1,65.5v-5.9h5.9v5.9h-5.9ZM208.1,65.5v-5.9h5.9v5.9h-5.9ZM208.1,65.5v-5.9h5.9v5.9h-5.9ZM208.1,69.8v-5.9h5.9v5.9h-5.9ZM208.1,69.8v-5.9h5.9v5.9h-5.9ZM208.1,69.8v-5.9h5.9v5.9h-5.9ZM208.1,69.8v-5.9h5.9v5.9h-5.9Z"/>
  <path class="cls-1" d="M218.7,40.1v-5.9h5.9v5.9h-5.9ZM218.7,40.1v-5.9h5.9v5.9h-5.9ZM218.7,40.1v-5.9h5.9v5.9h-5.9ZM218.7,40.1v-5.9h5.9v5.9h-5.9ZM223,27.4v-5.9h5.9v5.9h-5.9ZM223,27.4v-5.9h5.9v5.9h-5.9ZM223,27.4v-5.9h5.9v5.9h-5.9ZM223,27.4v-5.9h5.9v5.9h-5.9ZM223,31.6v-5.9h5.9v5.9h-5.9ZM223,31.6v-5.9h5.9v5.9h-5.9ZM223,31.6v-5.9h5.9v5.9h-5.9ZM223,31.6v-5.9h5.9v5.9h-5.9ZM223,35.9v-5.9h5.9v5.9h-5.9ZM223,35.9v-5.9h5.9v5.9h-5.9ZM223,35.9v-5.9h5.9v5.9h-5.9ZM223,35.9v-5.9h5.9v5.9h-5.9ZM223,40.1v-5.9h5.9v5.9h-5.9ZM223,40.1v-5.9h5.9v5.9h-5.9ZM223,40.1v-5.9h5.9v5.9h-5.9ZM223,40.1v-5.9h5.9v5.9h-5.9ZM223,44.4v-5.9h5.9v5.9h-5.9ZM223,44.4v-5.9h5.9v5.9h-5.9ZM223,44.4v-5.9h5.9v5.9h-5.9ZM223,44.4v-5.9h5.9v5.9h-5.9ZM223,48.6v-5.9h5.9v5.9h-5.9ZM223,48.6v-5.9h5.9v5.9h-5.9ZM223,48.6v-5.9h5.9v5.9h-5.9ZM223,48.6v-5.9h5.9v5.9h-5.9ZM223,52.8v-5.9h5.9v5.9h-5.9ZM223,52.8v-5.9h5.9v5.9h-5.9ZM223,52.8v-5.9h5.9v5.9h-5.9ZM223,52.8v-5.9h5.9v5.9h-5.9ZM223,57.1v-5.9h5.9v5.9h-5.9ZM223,57.1v-5.9h5.9v5.9h-5.9ZM223,57.1v-5.9h5.9v5.9h-5.9ZM223,57.1v-5.9h5.9v5.9h-5.9ZM223,61.3v-5.9h5.9v5.9h-5.9ZM223,61.3v-5.9h5.9v5.9h-5.9ZM223,61.3v-5.9h5.9v5.9h-5.9ZM223,61.3v-5.9h5.9v5.9h-5.9ZM223,65.5v-5.9h5.9v5.9h-5.9ZM223,65.5v-5.9h5.9v5.9h-5.9ZM223,65.5v-5.9h5.9v5.9h-5.9ZM223,65.5v-5.9h5.9v5.9h-5.9ZM223,69.8v-5.9h5.9v5.9h-5.9ZM223,69.8v-5.9h5.9v5.9h-5.9ZM223,69.8v-5.9h5.9v5.9h-5.9ZM223,69.8v-5.9h5.9v5.9h-5.9ZM227.2,23.2v-5.9h5.9v5.9h-5.9ZM227.2,23.2v-5.9h5.9v5.9h-5.9ZM227.2,23.2v-5.9h5.9v5.9h-5.9ZM227.2,23.2v-5.9h5.9v5.9h-5.9ZM227.2,40.1v-5.9h5.9v5.9h-5.9ZM227.2,40.1v-5.9h5.9v5.9h-5.9ZM227.2,40.1v-5.9h5.9v5.9h-5.9ZM227.2,40.1v-5.9h5.9v5.9h-5.9ZM231.4,23.2v-5.9h5.9v5.9h-5.9ZM231.4,23.2v-5.9h5.9v5.9h-5.9ZM231.4,23.2v-5.9h5.9v5.9h-5.9ZM231.4,23.2v-5.9h5.9v5.9h-5.9ZM231.4,40.1v-5.9h5.9v5.9h-5.9ZM231.4,40.1v-5.9h5.9v5.9h-5.9ZM231.4,40.1v-5.9h5.9v5.9h-5.9ZM231.4,40.1v-5.9h5.9v5.9h-5.9ZM235.7,23.2v-5.9h5.9v5.9h-5.9ZM235.7,23.2v-5.9h5.9v5.9h-5.9ZM235.7,23.2v-5.9h5.9v5.9h-5.9ZM235.7,23.2v-5.9h5.9v5.9h-5.9Z"/>
  <path class="cls-1" d="M239.9,44.4v-5.9h5.9v5.9h-5.9ZM239.9,44.4v-5.9h5.9v5.9h-5.9ZM239.9,44.4v-5.9h5.9v5.9h-5.9ZM239.9,44.4v-5.9h5.9v5.9h-5.9ZM239.9,48.6v-5.9h5.9v5.9h-5.9ZM239.9,48.6v-5.9h5.9v5.9h-5.9ZM239.9,48.6v-5.9h5.9v5.9h-5.9ZM239.9,48.6v-5.9h5.9v5.9h-5.9ZM239.9,52.8v-5.9h5.9v5.9h-5.9ZM239.9,52.8v-5.9h5.9v5.9h-5.9ZM239.9,52.8v-5.9h5.9v5.9h-5.9ZM239.9,52.8v-5.9h5.9v5.9h-5.9ZM239.9,57.1v-5.9h5.9v5.9h-5.9ZM239.9,57.1v-5.9h5.9v5.9h-5.9ZM239.9,57.1v-5.9h5.9v5.9h-5.9ZM239.9,57.1v-5.9h5.9v5.9h-5.9ZM239.9,61.3v-5.9h5.9v5.9h-5.9ZM239.9,61.3v-5.9h5.9v5.9h-5.9ZM239.9,61.3v-5.9h5.9v5.9h-5.9ZM239.9,61.3v-5.9h5.9v5.9h-5.9ZM239.9,65.5v-5.9h5.9v5.9h-5.9ZM239.9,65.5v-5.9h5.9v5.9h-5.9ZM239.9,65.5v-5.9h5.9v5.9h-5.9ZM239.9,65.5v-5.9h5.9v5.9h-5.9ZM244.1,40.1v-5.9h5.9v5.9h-5.9ZM244.1,40.1v-5.9h5.9v5.9h-5.9ZM244.1,40.1v-5.9h5.9v5.9h-5.9ZM244.1,40.1v-5.9h5.9v5.9h-5.9ZM244.1,52.8v-5.9h5.9v5.9h-5.9ZM244.1,52.8v-5.9h5.9v5.9h-5.9ZM244.1,52.8v-5.9h5.9v5.9h-5.9ZM244.1,52.8v-5.9h5.9v5.9h-5.9ZM244.1,69.8v-5.9h5.9v5.9h-5.9ZM244.1,69.8v-5.9h5.9v5.9h-5.9ZM244.1,69.8v-5.9h5.9v5.9h-5.9ZM244.1,69.8v-5.9h5.9v5.9h-5.9ZM248.4,40.1v-5.9h5.9v5.9h-5.9ZM248.4,40.1v-5.9h5.9v5.9h-5.9ZM248.4,40.1v-5.9h5.9v5.9h-5.9ZM248.4,40.1v-5.9h5.9v5.9h-5.9ZM248.4,52.8v-5.9h5.9v5.9h-5.9ZM248.4,52.8v-5.9h5.9v5.9h-5.9ZM248.4,52.8v-5.9h5.9v5.9h-5.9ZM248.4,52.8v-5.9h5.9v5.9h-5.9ZM248.4,69.8v-5.9h5.9v5.9h-5.9ZM248.4,69.8v-5.9h5.9v5.9h-5.9ZM248.4,69.8v-5.9h5.9v5.9h-5.9ZM248.4,69.8v-5.9h5.9v5.9h-5.9ZM252.6,40.1v-5.9h5.9v5.9h-5.9ZM252.6,40.1v-5.9h5.9v5.9h-5.9ZM252.6,40.1v-5.9h5.9v5.9h-5.9ZM252.6,40.1v-5.9h5.9v5.9h-5.9ZM252.6,52.8v-5.9h5.9v5.9h-5.9ZM252.6,52.8v-5.9h5.9v5.9h-5.9ZM252.6,52.8v-5.9h5.9v5.9h-5.9ZM252.6,52.8v-5.9h5.9v5.9h-5.9ZM252.6,69.8v-5.9h5.9v5.9h-5.9ZM252.6,69.8v-5.9h5.9v5.9h-5.9ZM252.6,69.8v-5.9h5.9v5.9h-5.9ZM252.6,69.8v-5.9h5.9v5.9h-5.9ZM256.9,44.4v-5.9h5.9v5.9h-5.9ZM256.9,44.4v-5.9h5.9v5.9h-5.9ZM256.9,44.4v-5.9h5.9v5.9h-5.9ZM256.9,44.4v-5.9h5.9v5.9h-5.9ZM256.9,48.6v-5.9h5.9v5.9h-5.9ZM256.9,48.6v-5.9h5.9v5.9h-5.9ZM256.9,48.6v-5.9h5.9v5.9h-5.9ZM256.9,48.6v-5.9h5.9v5.9h-5.9ZM256.9,52.8v-5.9h5.9v5.9h-5.9ZM256.9,52.8v-5.9h5.9v5.9h-5.9ZM256.9,52.8v-5.9h5.9v5.9h-5.9ZM256.9,52.8v-5.9h5.9v5.9h-5.9ZM256.9,65.5v-5.9h5.9v5.9h-5.9ZM256.9,65.5v-5.9h5.9v5.9h-5.9ZM256.9,65.5v-5.9h5.9v5.9h-5.9ZM256.9,65.5v-5.9h5.9v5.9h-5.9Z"/>
</svg>